<?xml version="1.0" encoding="utf-8"?>
<!-- Designed by Vexels.com - 2020 All Rights Reserved - https://vexels.com/terms-and-conditions/  -->
<svg version="1.1" id="Capa_1" xmlns="http://www.w3.org/2000/svg" xmlns:xlink="http://www.w3.org/1999/xlink" x="0px" y="0px"
	 viewBox="0 0 1200 1200" enable-background="new 0 0 1200 1200" xml:space="preserve">
<g>
	<g id="XMLID_3_">
		<g>
			<path fill="#BDBEC7" d="M710.202,1013.223l-0.019,3.85c-4.898,0-9.929,0.267-14.541,1.353c-6.785,1.582-9.986,9.434-9.739,17
				l-2.135,0.076c-0.133-4.974-1.334-9.719-3.297-12.426c-3.145-4.288-10.787-3.869-15.475-4.002
				c-1.982-0.057-4.021-0.095-6.099-0.095l0.019-3.85c5.908,0.038,12.921,0.324,18.562-1.391c5.736-1.734,7.985-9.758,7.757-17.324
				l2.115-0.076c0.133,4.269,1.391,8.462,3.716,11.359c0.095,0.819,0.476,1.62,1.334,2.306c4.46,3.659,11.53,3.24,16.981,3.221
				C709.65,1013.223,709.936,1013.223,710.202,1013.223z"/>
			<path d="M757.18,571.194c2.268,18.334,0.686,37.963,0.648,56.392c-0.095,32.818,0.095,65.635-0.191,98.453
				c-0.762,83.226-1.582,166.471-2.63,249.716c-0.381,30.664-0.724,61.328-1.258,92.012c-0.343,20.278,2.478,44.805-14.255,59.67
				c-13.341,11.854-31.712,15.342-48.845,17.343c-20.602,2.401-41.375,3.392-62.072,4.174c-22.565,0.839-45.186,1.22-67.77,0.972
				c-14.122-0.152-29.559,0.686-43.452-2.344c-14.713-3.202-27.081-20.621-36.382-31.255c-6.327-7.204-12.559-14.579-18.257-22.317
				c-6.194-8.424-7.128-19.382-8.061-29.559c-3.373-37.239-2.211-75.126-1.677-112.48c0.553-38.992,2.173-77.966,3.164-116.939
				c-1.868,0-3.716,0-5.489-0.152c-2.458-0.191-4.993-2.058-4.822-4.803c0.743-11.397,0.667-22.717,0.915-34.114
				c0.095-4.345,8.938-3.678,9.567-3.773c0.076-3.907,0.152-7.795,0.324-11.721c0.019-0.324,0.076-0.648,0.152-0.934
				c-2.173-0.038-15.265,0.8-15.189-4.212c0.495-30.264,1.258-60.509,1.849-90.754c0.057-2.802,2.249-4.86,4.993-4.974
				c0.934-0.038,1.887-0.095,2.84-0.133c-0.019-0.076-0.057-0.152-0.076-0.229c0.019,0.076-0.019-2.173-0.057-2.173
				c0.038-1.105,0.172-2.173,0.343-3.24c0.172-1.01,0.476-1.963,0.819-2.878c-1.296,0-2.611,0-3.907-0.038
				c-2.554-0.076-4.345-2.02-4.498-4.498c-0.419-7.013-0.858-14.027-1.258-21.04c-0.248-4.555-0.629-9.148-0.724-13.703
				c-0.057-1.753-0.114-3.24,0.191-4.974c0.229-1.239,0.362-2.897,0.476-1.525c0.191-1.696,1.391-3.183,3.621-3.049
				c1.029,0.057,2.058,0.114,3.087,0.191c-0.686-9.967-0.076-19.877,0.915-29.807c0.8-8.119,1.124-16.866,3.793-24.642
				c3.983-11.568,14.141-22.565,25.785-26.91c-0.172-3.392,3.926-5.489,7.299-6.918c-0.457-1.658,0.457-3.697,2.077-4.421
				c-1.315-11.149-0.133-23.06-0.114-34.133c0.019-12.14-0.686-24.794,1.22-36.82c-0.076,0-0.152,0-0.229,0
				c-2.039-0.019-3.049-1.62-3.03-3.202c-0.191-0.4-0.324-0.877-0.343-1.429c-0.248-5.794,2.058-9.472,5.66-11.835
				c-1.22-2.763-0.743-6.537-0.114-9.853c-0.572-0.038-1.163-0.095-1.734-0.152c-2.287,0.553-5.031-0.648-4.86-3.602
				c0.496-8.748,4.231-14.427,9.681-18.029c-0.095-0.362-0.152-0.743-0.152-1.143c-0.133-56.602,0.076-113.185,0.133-169.787
				c0.038-28.282,0.057-56.583,0.076-84.884c0.019-27.729-1.639-56.087,1.029-83.702c0.172-1.696-0.191-5.584,0.781-7.452
				c9.91-19.153,36.439-15.799,50.332-3.831c0.248,0.229,3.24,1.639,3.354,3.411c3.545,56.812,1.601,114.138,1.62,171.045
				c0.019,57.726-1.143,115.529-0.648,173.217c0.019,1.239-0.457,2.173-1.201,2.782c6.003,3.659,9.853,9.548,8.729,18.867
				c-0.286,2.344-2.821,3.793-4.726,3.297c0.305,1.563,0.133,3.24,0.095,4.822c-0.038,1.582-0.229,2.935-0.591,4.307
				c3.697,2.84,4.841,7.471,4.86,12.521c0,0.362-0.057,0.686-0.133,0.991c0.248,1.601-0.724,3.373-2.897,3.545
				c-0.038,0-0.057,0-0.076,0c1.925,11.759,0.743,24.89,0.858,36.744c0.095,11.054,1.22,22.793,0.038,33.866
				c1.963,0.724,3.907,1.544,5.584,2.649c0.286-0.095,0.591-0.172,0.896-0.191c3.945-0.286,8.424,1.334,12.464,1.525
				c1.601,0.076,4.955,0.648,6.346-0.229c0.648-0.419,1.22-1.448,1.715-2.42c-0.419-0.133-0.839-0.286-1.239-0.438
				c-1.811-0.686-2.649-1.887-2.897-3.793c-2.287-18.429-2.668-37.334-1.525-55.878c0.133-2.001,1.506-3.049,2.973-3.202
				c0.457-0.781,1.163-1.467,2.192-1.887c18.62-7.585,46.978-11.168,62.986,3.831c1.086,0.553,1.906,1.62,1.925,3.221
				c0.191,17.247,0.953,56.24-1.639,57.784c-0.82,0.476-1.696,0.896-2.592,1.258c0.667,2.878,1.734,5.279,5.146,6.156
				c2.344,0.61,5.603,0.21,5.946-2.744c0.038-0.305,0.114-0.61,0.21-0.877c-4.726-2.02-4.307-10.482-4.364-14.713
				c-0.076-7.795,0.896-15.761,0.362-23.498c-0.191-2.916,30.188-6.613,41.68-6.403c7.49,0.152,16.066,0.648,22.469,4.936
				c0.114,0.076,0.21,0.172,0.305,0.248c1.01,0.419,1.791,1.22,1.982,2.401c1.753,10.444,1.41,22.202-0.629,32.799
				c2.458,2.401,2.439,7.566-1.791,8.29c-0.8,0.133-1.601,0.248-2.401,0.343c1.353,2.001,2.287,2.344,5.717,2.992
				c3.64,0.667,7.299,0.476,10.977,0.629c4.822,0.191,12.426-0.476,14.636,4.574C752.702,552.098,755.941,561.246,757.18,571.194z
				 M750.948,615.904c0.229-17.838,5.489-52.104-9.072-63.92c-0.191,0.038-0.381,0.076-0.572,0.095
				c-3.068,0.133-6.575-2.192-9.624-2.859c-3.888-0.839-8.157-0.686-12.121-1.01c-4.936-0.381-13.626-2.802-13.436-9.186
				c-14.37,0.839-28.053-1.83-42.442-3.735c-1.258,7.757-7.718,12.33-15.608,10.825c-6.06-1.182-11.644-6.67-11.759-12.902
				c-6.022,0.705-12.54,0.248-17.819,0.362c-9.319,0.191-18.372,0.648-27.31-1.067c-0.019,0.076-0.057,0.172-0.095,0.267
				c-1.525,3.183-3.602,5.26-6.27,6.404c0,0.019,0.019,0.038,0.019,0.057c0.21,2.02,15.132,2.897,16.962,3.011
				c4.212,0.248,12.006-1.22,15.742,1.201c2.096,1.353,2.077,4.25,0,5.603c-2.516,1.658-7.013,0.934-9.853,0.877
				c-4.936-0.133-9.891-0.343-14.789-0.953c-4.402-0.553-15.342-2.401-14.884-8.633c-2.992,0.038-7.128,0.133-10.768-0.534
				c-3.373,13.093-45.205,9.605-52.867,9.605c-6.384,0.019-22.393,1.582-30.207-2.706c-9.376,9.567-19.534,14.084-22.393,28.701
				c-1.62,8.29-2.573,17.133-2.935,25.957c6.67-1.83,14.541-2.287,21.345-1.753c2.211-0.934,5.031-0.629,6.746,1.868
				c6.27,9.11,6.613,20.163,6.175,30.855c-0.553,13.188-0.496,26.281-0.229,39.469c0.648,30.855,1.143,61.805,0.858,92.66
				c-0.191,19.935-1.372,40.041-2.306,59.975c-0.381,8.481,0,20.506-6.975,26.719c-3.278,2.935-7.928,3.754-12.33,3.888
				c-3.259,0.114-6.499-0.095-9.72-0.572c-0.019,11.568-0.038,23.117-0.305,34.666c-0.858,36.839-1.791,73.659-1.772,110.498
				c0,18.258,0.515,36.477,1.506,54.715c0.629,11.759,0.476,25.843,7.757,35.638c7.547,10.177,15.875,20.506,24.89,29.94
				c-8.157-35.677-11.816-72.21-9.872-108.84c2.192-41.699,1.677-83.378,1.639-125.115c0-5.451,8.462-5.451,8.462,0
				c0,40.479,0.724,80.977-1.506,121.418c-2.249,40.784,0.667,81.377,10.329,121.113c0.038,0.133,0.038,0.267,0.057,0.4
				c2.096,1.925,4.212,3.812,6.365,5.603c8.919,7.433,20.049,6.537,31.217,6.937c41.394,1.544,83.131,0.419,124.429-2.458
				c30.226-2.115,77.451-3.64,79.491-43.452c2.668-52.085,1.715-104.571,2.23-156.694c0.8-79.357,1.525-158.714,2.192-238.052
				C749.767,672.506,750.567,644.205,750.948,615.904z M707.401,529.915c2.478-9.681,1.506-19.363,2.42-29.063
				c-1.582-0.934-3.259-1.734-5.05-2.382c0.324,5.736-0.819,12.216-4.555,16.638c-1.696,2.001-5.108,0.839-5.736-1.506
				c-1.41-5.317,0.915-11.015,0.819-16.409c-0.019-0.362,0.019-0.686,0.076-1.01c-2.249-0.324-4.574-0.515-6.899-0.61
				c0.915,11.587,1.391,23.232,1.448,34.838C695.852,530.906,701.722,530.906,707.401,529.915z M682.473,529.591
				c-0.114-11.358-0.648-22.736,0.057-34.076c-2.573,0.057-5.165,0.191-7.699,0.362c1.525,10.444,0.133,21.84-1.487,32.322
				C676.375,528.695,679.424,529.171,682.473,529.591z M663.911,526.751c0.82-9.948,0.496-20.278,2.058-30.054
				c-2.401,0.248-4.688,0.496-6.842,0.724c0.877,5.393,0.61,10.939,0.686,16.409c0.076,4.212,0.743,8.385,1.124,12.54
				C661.929,526.484,662.92,526.617,663.911,526.751z M640.641,472.36c0-0.038,0-0.076,0-0.114
				c-1.925-1.296-3.983-2.344-6.118-3.183c0.476,8.919,0.991,17.838,1.277,26.776c0.267,8.328,1.658,19.153-0.515,27.672
				c1.925-0.267,3.812-0.553,5.679-0.819C640.203,505.94,640.431,489.112,640.641,472.36z M628.539,524.407
				c-0.686-9.777,0.229-19.992-0.057-29.845c-0.286-9.11-0.819-18.257-0.553-27.367c-2.687-0.515-5.451-0.762-8.271-0.8
				c0.724,7.776,0.534,15.608,0.476,23.422c-0.057,8.805,1.277,18.791-1.334,27.253c-1.029,3.335-5.775,3.354-6.785,0
				c-2.592-8.481-1.048-18.467-0.858-27.253c0.191-7.699,0.191-15.418,0.934-23.079c-4.174,0.438-8.328,1.22-12.33,2.211
				c1.696,8.976,1.582,18.601,1.791,27.634c0.229,9.624,0.61,19.401-0.21,29.006C610.282,526.217,619.563,525.512,628.539,524.407z
				 M594.978,524.921c-1.696-17.857-1.163-36.153-1.81-54.086c-2.649,0.839-5.222,1.734-7.623,2.649
				c-0.21,0.095-0.4,0.133-0.591,0.172c0.781,16.561,0.114,33.085,2.192,49.589C589.699,523.968,592.31,524.521,594.978,524.921z
				 M558.025,539.329c-0.457-0.362-0.934-0.724-1.487-1.029c-1.677-0.934-3.449-1.582-5.203-2.344
				c-1.01-0.438-1.601-1.201-1.887-2.058c-0.515-0.476-0.896-1.105-1.01-1.906c-1.734-11.892-0.381-24.68-0.267-36.686
				c0.095-11.702-1.048-24.661,0.781-36.324c-17.343,0.839-34.971,0-52.333-0.248c1.887,11.987,1.163,24.642,1.182,36.744
				c0.038,10.977,1.22,22.736-0.057,33.79c10.177-0.267,21.097-0.858,30.435,2.135c2.63,0.858,3.106,5.241,0,5.832
				c-6.956,1.334-14.274,0.591-21.326,0.419c-4.745-0.114-9.796,0.438-14.446-0.572c-0.152,0.743-0.572,1.41-1.372,1.83
				c-5.946,2.992,1.22,2.344,4.631,2.897c3.297,0.553,6.575,0.781,9.91,0.915c6.918,0.267,13.893,0.267,20.83,0.21
				C535.689,542.855,550.249,545.351,558.025,539.329z M551.831,425.992c-0.743-3.869-1.772-7.433-5.222-10.12
				c-4.383-3.392-10.863-4.078-16.142-4.574c-12.769-1.22-34.285-1.124-36.82,14.389c9.967-0.686,20.201-0.172,30.15-0.114
				C533.059,425.63,542.569,425.058,551.831,425.992z M547.314,438.703c-0.038-0.495-0.076-0.991-0.095-1.506
				c-0.038-1.544-0.191-3.183,0.095-4.688c-7.814,0.4-15.761,0.019-23.517,0.076c-8.29,0.038-16.771,0.4-25.156,0.114
				c0.4,2.192,0.724,4.555,0.515,6.689c5.527-1.372,11.873-1.487,16.885-1.734C525.245,437.217,537.709,436.378,547.314,438.703z
				 M551.755,452.215c-1.544-8.424-11.663-7.414-18.772-7.928c-5.622-0.4-11.301-0.724-16.943-0.705
				c-8.29,0.038-21.535-1.487-22.526,8.748C512.82,452.139,532.468,451.053,551.755,452.215z M544.208,407.315
				c0.515-57.65-0.648-115.415-0.629-173.103c0.019-55.401-2.134-166.68-3.64-168.624c-15.151-19.515-38.592,2.211-38.935,2.344
				c1.143,0.419,3.278,60.356,3.297,88.695c0.019,27.672,0.038,55.344,0.057,82.997c0.057,55.649,0.267,111.298,0.152,166.928
				c7.68-2.077,16.599-2.173,24.489-1.791C534.031,405.009,539.405,405.733,544.208,407.315z M483.013,834.898
				c3.106-68.551,0.21-137.198-0.438-205.787c-0.057-6.327-0.133-12.807-2.478-18.677c-0.343-0.858-0.762-1.734-1.506-2.268
				c-0.915-0.629-2.077-0.648-3.183-0.629c-5.584,0.076-11.149,0.152-16.733,0.21c0.21,5.089,0.419,10.177,0.61,15.265
				c4.174-0.476,9.453-0.381,11.187,3.43c0.534,1.163,0.591,2.478,0.648,3.754c0.515,11.454,1.01,22.927,1.525,34.38
				c0.038,1.143,0.076,2.325-0.381,3.354c-0.934,2.039-3.507,2.763-5.755,2.763c-2.249,0.019-4.555-0.438-6.689,0.267
				c-0.629,2.611-0.705,5.355-0.267,8.004c4.65,1.124,10.806-2.192,13.645,1.658c1.067,1.41,1.105,3.316,1.086,5.089
				c-0.095,29.12-0.21,58.241-0.324,87.342c0,1.315-0.019,2.668-0.61,3.831c-1.582,3.164-6.022,3.145-9.51,2.649
				c0.152,3.888,0.286,7.776,0.419,11.663c1.658-1.105,4.059-0.095,5.127,1.582c1.067,1.696,1.143,3.792,1.22,5.775
				c0.267,8.424,0.534,16.847,0.781,25.271c0.095,3.011,0.152,6.194-1.372,8.786c-0.686,1.163-1.81,2.096-3.049,2.63
				c-1.544,0.667-3.278,0.686-4.593-0.343c1.143,0.896-0.457,7.985-0.038,9.548c0.8,3.03,0.934,2.897,4.44,3.488
				c4.612,0.781,10.234,1.01,13.531-2.973C482.575,842.236,482.842,838.424,483.013,834.898z M464.775,770.597
				c-0.114-27.291-0.21-54.582-0.305-81.873c-3.697,0.191-7.394,0.381-11.111,0.572c-0.343,27.253-0.572,54.506-0.991,81.758
				C456.504,770.864,460.639,770.711,464.775,770.597z M463.86,661.891c-0.324-10.253-0.629-20.506-0.915-30.779
				c-3.964-0.324-7.928-0.648-11.911-0.972c0.038,0.495,0.076,1.01,0.114,1.525c0.305,4.555,0.496,9.129,0.743,13.703
				c0.286,5.546,0.534,11.092,0.8,16.657C456.408,662.062,460.144,662.005,463.86,661.891z M462.373,825.998
				c-0.248-8.9-0.534-17.857-0.4-26.757c-2.001-0.019-4.021-0.038-6.022-0.057c-0.229,8.748-0.553,17.476-0.515,26.243
				C457.685,825.598,459.972,825.808,462.373,825.998z"/>
			<path fill="#BDBEC7" d="M741.877,551.984c14.56,11.816,9.3,46.082,9.072,63.92c-0.381,28.301-1.182,56.602-1.429,84.884
				c-0.667,79.338-1.391,158.695-2.192,238.052c-0.515,52.123,0.438,104.609-2.23,156.694
				c-2.039,39.812-49.265,41.337-79.491,43.452c-41.298,2.878-83.035,4.002-124.429,2.458c-11.168-0.4-22.298,0.495-31.217-6.937
				c-2.154-1.791-4.269-3.678-6.365-5.603c-0.019-0.133-0.019-0.267-0.057-0.4c-9.662-39.736-12.578-80.329-10.329-121.113
				c2.23-40.441,1.506-80.939,1.506-121.418c0-5.451-8.462-5.451-8.462,0c0.038,41.737,0.553,83.417-1.639,125.115
				c-1.944,36.629,1.715,73.163,9.872,108.84c-9.014-9.434-17.343-19.763-24.89-29.94c-7.28-9.796-7.128-23.88-7.757-35.638
				c-0.991-18.238-1.506-36.458-1.506-54.715c-0.019-36.839,0.915-73.659,1.772-110.498c0.267-11.549,0.286-23.098,0.305-34.666
				c3.221,0.476,6.461,0.686,9.72,0.572c4.402-0.133,9.052-0.953,12.33-3.888c6.975-6.213,6.594-18.238,6.975-26.719
				c0.934-19.935,2.115-40.041,2.306-59.975c0.286-30.855-0.21-61.805-0.858-92.66c-0.267-13.188-0.324-26.281,0.229-39.469
				c0.438-10.691,0.095-21.745-6.175-30.855c-1.715-2.497-4.536-2.802-6.746-1.868c-6.804-0.534-14.675-0.076-21.345,1.753
				c0.362-8.824,1.315-17.667,2.935-25.957c2.859-14.617,13.017-19.134,22.393-28.701c7.814,4.288,23.822,2.725,30.207,2.706
				c7.661,0,49.493,3.488,52.867-9.605c3.64,0.667,7.776,0.572,10.768,0.534c-0.457,6.232,10.482,8.081,14.884,8.633
				c4.898,0.61,9.853,0.82,14.789,0.953c2.84,0.057,7.337,0.781,9.853-0.877c2.077-1.353,2.096-4.25,0-5.603
				c-3.735-2.42-11.53-0.953-15.742-1.201c-1.83-0.114-16.752-0.991-16.962-3.011c0-0.019-0.019-0.038-0.019-0.057
				c2.668-1.143,4.745-3.221,6.27-6.404c0.038-0.095,0.076-0.191,0.095-0.267c8.938,1.715,17.991,1.258,27.31,1.067
				c5.279-0.114,11.797,0.343,17.819-0.362c0.114,6.232,5.698,11.721,11.759,12.902c7.89,1.506,14.351-3.068,15.608-10.825
				c14.389,1.906,28.072,4.574,42.442,3.735c-0.191,6.384,8.5,8.805,13.436,9.186c3.964,0.324,8.233,0.172,12.121,1.01
				c3.049,0.667,6.556,2.992,9.624,2.859C741.495,552.06,741.686,552.022,741.877,551.984z M733.301,789.369
				c1.086,2.935,5.927,2.763,5.794-0.781c-0.419-10.539,0.229-24.832-6.308-33.732c-7.09-9.662-21.211-6.747-31.312-5.889
				c-3.469,0.305-3.583,5.451,0,5.489c8.576,0.076,23.937-1.772,27.501,7.814C732.195,770.94,730.118,780.736,733.301,789.369z
				 M736.14,568.602c4.479,0.839,6.327-5.47,1.887-6.88c-21.917-7.013-46.558-5.069-69.428-5.813
				c-21.898-0.705-43.795-1.525-65.712-1.544c-20.144-0.019-40.612-0.152-60.661,2.001c-7.852,0.839-27.367,1.296-29.578,11.644
				c-0.953,4.46,4.155,7.49,7.566,4.402c6.27-5.679,21.936-5.698,30.493-6.48c19.611-1.791,39.316-1.906,59.022-1.83
				c20.278,0.095,40.517,0.267,60.795,0.762C692.25,565.4,714.757,564.657,736.14,568.602z M738.198,1100.68
				c0.61-3.259-3.354-4.936-5.279-2.23c-2.23,3.145-3.507,6.27-6.423,8.938c-2.725,2.497-5.489,4.707-9.052,5.851
				c-4.65,1.467-2.744,8.405,2.001,7.28c4.726-1.105,9.148-3.469,12.254-7.261C734.444,1109.942,737.398,1104.911,738.198,1100.68z
				 M736.197,959.251c0.419-4.955,0.553-13.131-2.554-17.438c-3.087-4.269-10.634-3.888-15.284-4.002
				c-6.67-0.191-13.989-0.286-20.544,1.239c-6.766,1.601-9.986,9.453-9.739,17.019l-2.096,0.076
				c-0.133-4.974-1.334-9.72-3.297-12.426c-3.145-4.307-10.787-3.888-15.475-4.002c-6.766-0.191-14.198-0.305-20.849,1.239
				c-6.804,1.582-10.082,9.453-9.834,17.019l-2.192,0.076c-0.133-4.974-1.334-9.72-3.297-12.426
				c-3.125-4.307-10.768-3.888-15.456-4.002c-6.785-0.191-14.217-0.305-20.868,1.239c-6.804,1.582-10.063,9.453-9.834,17.019
				l-2.192,0.076c-0.133-4.974-1.334-9.72-3.297-12.426c-3.125-4.307-10.768-3.888-15.456-4.002
				c-6.785-0.191-14.217-0.305-20.868,1.239c-10.653,2.477-12.616,20.373-6.079,28.396c0.095,0.82,0.496,1.601,1.353,2.287
				c4.555,3.678,11.663,3.24,17.209,3.24c0.457,0,0.915,0,1.391,0l-0.019,4.993c-4.917,0-9.929,0.267-14.579,1.353
				c-10.672,2.477-12.635,20.373-6.079,28.396c0.076,0.82,0.476,1.601,1.334,2.287c4.555,3.678,11.663,3.24,17.209,3.221
				c0.286,0,0.553,0,0.839,0l-0.019,3.85c-4.974,0-10.063,0.267-14.77,1.353c-10.653,2.458-12.635,20.354-6.079,28.396
				c0.095,0.8,0.495,1.601,1.353,2.287c4.555,3.659,11.663,3.24,17.209,3.221c6.079-0.019,13.474,0.381,19.382-1.41
				c5.927-1.791,8.119-10.291,7.738-18.067l2.192-0.076c0,4.536,1.258,9.052,3.773,12.14c0.095,0.8,0.496,1.601,1.334,2.287
				c4.574,3.659,11.682,3.24,17.209,3.221c6.099-0.019,13.493,0.381,19.401-1.41c5.736-1.734,7.985-9.758,7.757-17.324l2.192-0.076
				c0.133,4.288,1.372,8.481,3.754,11.397c0.076,0.8,0.477,1.601,1.334,2.287c4.555,3.659,11.663,3.24,17.209,3.221
				c6.079-0.019,13.493,0.381,19.401-1.41c5.736-1.734,7.985-9.758,7.757-17.324l2.135-0.076c0.133,4.288,1.391,8.481,3.716,11.378
				c0.076,0.8,0.476,1.62,1.315,2.306c4.479,3.659,11.53,3.24,17,3.221c5.984-0.019,13.283,0.381,19.096-1.391
				c5.451-1.658,6.575-7.223,6.994-12.312c0.419-4.974,0.553-13.15-2.554-17.457c-3.106-4.269-10.634-3.869-15.284-4.002
				c-1.963-0.057-3.983-0.095-6.003-0.095l0.019-3.85c5.832,0.038,12.731,0.305,18.277-1.391c5.451-1.658,6.575-7.204,6.994-12.311
				c0.419-4.974,0.553-13.15-2.554-17.438c-3.106-4.269-10.634-3.888-15.284-4.002c-1.982-0.057-4.021-0.095-6.079-0.095
				l0.019-5.012c5.698,0.019,12.273,0.229,17.629-1.41C734.673,969.904,735.778,964.359,736.197,959.251z M732.291,598.542
				c0-5.946-0.419-13.341-2.554-19.153c0.133-1.849-0.82-3.793-2.84-4.193c-14.122-2.744-29.768-1.029-44.138-1.01
				c-15.608,0-31.198,0.019-46.806,0.038c-14.979,0-29.959,0.381-44.939,0.686c-15.323,0.305-31.446,1.715-46.673-0.057
				c-1.182-0.133-2.096,0.229-2.763,0.858c-2.249-0.705-5.088,0.038-6.079,2.878c-3.373,9.586-10.539,30.359,1.925,36.477
				c1.22,0.61,2.401,0.667,3.469,0.4c13.893,3.068,30.207,0.686,44.386,0.648c15.818-0.038,31.655,0.038,47.473,0.076
				c15.837,0.038,31.655,0.114,47.492,0.191c15.056,0.076,31.884,2.058,46.673-0.877c2.344-0.476,3.278-2.935,2.802-5.012
				C731.814,607.099,732.291,602.468,732.291,598.542z M731.414,1079.754c0.419-4.974,0.572-13.15-2.554-17.438
				c-3.087-4.288-10.634-3.888-15.284-4.021c-6.67-0.172-13.988-0.286-20.544,1.258c-10.596,2.478-12.483,20.335-6.022,28.377
				c0.095,0.8,0.495,1.62,1.334,2.306c4.479,3.659,11.53,3.24,16.981,3.221c6.003-0.019,13.302,0.381,19.115-1.391
				C729.889,1090.408,730.995,1084.843,731.414,1079.754z M725.811,642.375c4.555-0.476,4.574-6.613,0-7.09
				c-15.399-1.62-31.141-0.82-46.616-1.067c-15.513-0.248-31.026-0.476-46.539-0.724c-31.636-0.515-63.329-1.239-94.966-0.381
				c-7.337,0.21-7.356,11.244,0,11.435c31.636,0.858,63.329,0.133,94.966-0.362c15.513-0.248,31.026-0.495,46.539-0.743
				C694.67,643.195,710.412,643.995,725.811,642.375z M724.572,732.805c6.346,0.648,7.909-9.891,0.286-10.863
				c-15.342-1.944-31.522-0.648-46.997-0.686c-15.666-0.057-31.331-0.095-46.997-0.095c-15.037-0.019-30.073-0.019-45.11-0.038
				c-15.399,0-31.255-1.124-46.539,1.01c-5.184,0.724-5.184,9.739,0,10.463c14.675,2.039,29.864,1.01,44.672,1.01
				c15.666-0.019,31.331-0.019,46.978-0.038c15.056,0,30.092-0.038,45.129-0.076C691.964,733.434,708.716,734.787,724.572,732.805z
				 M725.277,704.504c0.114-1.563-0.534-3.106-2.23-3.945c-3.221-1.582-25.404-2.02-31.541-2.02c-16.809,0-33.618,0-50.427,0
				c-16.79,0-33.599,0-50.408,0c-16.237,0-33.942-1.982-49.913,0.991c-4.917,0.915-4.917,9.014,0,9.929
				c15.951,2.973,33.694,0.991,49.913,0.991c16.809,0,33.618,0,50.408,0c16.809,0,33.618,0,50.427,0
				c4.803,0,26.986,0.21,31.541-2.02C724.744,707.591,725.372,706.048,725.277,704.504z M724.82,668.313
				c4.345-0.686,4.345-8.1,0-8.786c-14.522-2.325-30.131-0.877-44.824-0.972c-16.142-0.114-32.284,0.038-48.426-0.114
				s-32.284-0.419-48.426-0.419c-14.979,0-31.236-1.582-45.968,1.296c-4.555,0.896-4.555,8.309,0,9.186
				c14.77,2.897,30.95,1.315,45.968,1.315c16.142,0,32.284-0.267,48.426-0.419c16.142-0.172,32.284,0,48.426-0.114
				C694.67,669.171,710.317,670.619,724.82,668.313z M720.78,866.248c0.572-27.005,1.239-54.029-0.057-81.034
				c-0.248-5.012,0.591-13.607-3.106-17.648c-3.621-3.926-11.435-4.383-16.294-5.089c-24.604-3.602-49.932-3.583-74.745-3.526
				c-24.604,0.057-49.665,0.248-74.078,3.678c-4.707,0.667-12.331,1.029-15.78,4.917c-3.621,4.136-2.916,12.673-3.24,17.762
				c-1.658,26.853-1.525,53.915-1.105,80.825c0.21,12.616,0.515,25.252,1.372,37.849c0.4,6.175-0.191,15.99,3.316,21.497
				c5.203,8.138,23.841,5.222,31.75,5.088c19.401-0.381,38.783-1.753,58.184-1.982c16.504-0.21,33.027-0.324,49.512-1.01
				c8.748-0.362,17.495-0.858,26.167-1.982c4.421-0.572,10.196-0.858,13.912-3.621c1.81-1.353,2.344-3.297,2.058-5.108
				c1.315-4.383,0.762-10.92,0.972-14.465C720.303,890.357,720.532,878.312,720.78,866.248z M698.596,1129.114
				c2.763-1.296,1.391-5.851-1.544-5.717c-9.853,0.457-19.611,2.23-29.54,2.63c-11.53,0.476-23.079,0.934-34.628,1.296
				c-23.861,0.762-47.702,1.372-71.581,1.982c-3.945,0.095-3.945,6.041,0,6.137c25.08,0.61,50.179,0.686,75.241,0.019
				c11.74-0.305,23.498-0.629,35.219-1.448C680.548,1133.402,690.573,1132.926,698.596,1129.114z M673.363,1093.971
				c9.491-2.897,9.415-22.946,4.46-29.749c-3.145-4.307-10.768-3.888-15.456-4.021c-6.785-0.172-14.217-0.286-20.868,1.258
				c-10.653,2.478-12.635,20.354-6.08,28.396c0.095,0.801,0.496,1.601,1.334,2.287c4.555,3.659,11.682,3.24,17.209,3.221
				C660.061,1095.344,667.456,1095.744,673.363,1093.971z M623.622,1095.877c9.491-2.897,9.415-22.946,4.46-29.749
				c-3.125-4.307-10.768-3.888-15.456-4.021c-6.785-0.172-14.217-0.286-20.868,1.258c-10.653,2.478-12.635,20.354-6.079,28.396
				c0.095,0.8,0.495,1.601,1.334,2.287c4.574,3.659,11.682,3.24,17.228,3.221C610.32,1097.249,617.714,1097.65,623.622,1095.877z
				 M571.975,1097.783c9.491-2.897,9.434-22.946,4.479-29.749c-3.145-4.307-10.787-3.888-15.475-4.021
				c-6.766-0.172-14.198-0.286-20.849,1.258c-10.672,2.477-12.635,20.354-6.079,28.396c0.076,0.8,0.476,1.601,1.334,2.287
				c4.555,3.659,11.663,3.24,17.209,3.221C558.673,1099.155,566.086,1099.555,571.975,1097.783z M529.362,1133.669
				c3.049,0.419,6.785-3.545,3.526-6.079c-4.269-3.316-8.976-5.984-12.75-9.929c-3.678-3.831-6.461-8.424-9.948-12.369
				c-1.506-1.715-5.165-0.457-4.822,2.001C506.893,1118.69,517.317,1131.954,529.362,1133.669z M512.724,888.622
				c0.267-66.112,0.152-132.224,0.152-198.336c0-37.563-0.991-75.183-0.991-112.689c0-5.698-8.862-5.717-8.862,0
				c0,132.148-0.534,264.467-0.667,396.671c-0.038,37.563-1.467,75.603,0.724,113.109c0.324,5.622,8.424,5.641,8.748,0
				c1.944-33.104,0.762-66.627,0.724-99.787C512.534,954.601,512.591,921.612,512.724,888.622z M477.696,922.603
				c0.095-13.207,1.315-26.357,0.991-39.583c-0.114-4.745-7.433-4.764-7.394,0c0.267,23.803-0.591,48.712-3.659,72.306
				c-0.553,4.307,5.927,4.612,7.204,0.972C478.592,945.625,477.62,933.733,477.696,922.603z M475.828,1058.6
				c1.467-14.503,0.019-29.387-0.229-43.929c-0.21-12.978,1.048-26.109-1.62-38.897c-0.8-3.85-7.452-3.049-6.956,0.934
				c1.658,13.169-0.038,26.567,0.095,39.793c0.114,13.969-0.21,28.206,1.143,42.099C468.739,1063.46,475.333,1063.46,475.828,1058.6
				z"/>
			<path d="M739.094,788.588c0.133,3.545-4.707,3.716-5.794,0.781c-3.183-8.633-1.105-18.429-4.326-27.1
				c-3.564-9.586-18.924-7.738-27.501-7.814c-3.583-0.038-3.469-5.184,0-5.489c10.101-0.858,24.223-3.773,31.312,5.889
				C739.323,763.755,738.675,778.048,739.094,788.588z"/>
			<path d="M738.027,561.722c4.44,1.41,2.592,7.718-1.887,6.88c-21.383-3.945-43.89-3.202-65.616-3.735
				c-20.278-0.496-40.517-0.667-60.795-0.762c-19.706-0.076-39.412,0.038-59.022,1.83c-8.557,0.781-24.223,0.8-30.493,6.48
				c-3.411,3.087-8.519,0.057-7.566-4.402c2.211-10.348,21.726-10.806,29.578-11.644c20.049-2.154,40.517-2.02,60.661-2.001
				c21.917,0.019,43.814,0.839,65.712,1.544C691.468,556.653,716.11,554.709,738.027,561.722z"/>
			<path d="M732.919,1098.45c1.925-2.706,5.889-1.029,5.279,2.23c-0.8,4.231-3.754,9.262-6.499,12.578
				c-3.106,3.792-7.528,6.156-12.254,7.261c-4.745,1.125-6.651-5.813-2.001-7.28c3.564-1.144,6.327-3.354,9.052-5.851
				C729.413,1104.72,730.69,1101.595,732.919,1098.45z"/>
			<path d="M733.644,941.813c3.106,4.307,2.973,12.483,2.554,17.438c-0.419,5.107-1.525,10.653-6.994,12.311
				c-5.355,1.639-11.93,1.429-17.629,1.41c-0.496,0-0.991,0-1.467,0c-5.451,0-12.521,0.419-16.981-3.24
				c-0.858-0.686-1.239-1.487-1.334-2.306c-2.325-2.897-3.583-7.09-3.716-11.359c-0.248-7.566,2.973-15.418,9.739-17.019
				c6.556-1.525,13.874-1.429,20.544-1.239C723.009,937.925,730.556,937.544,733.644,941.813z M728.65,959.251
				c0.133-3.507-0.343-8.729-2.001-12.102c-0.21-0.076-0.553-0.133-1.029-0.095c-2.096,0.114-4.46-0.476-6.575-0.553
				c-4.707-0.172-9.434-0.057-14.141,0.324c-4.402,0.343-6.766,0-7.909,4.631c-0.877,3.64-0.648,8.214,0.934,11.816
				c0.038,0.019,0.095,0.038,0.133,0.057c6.766,3.526,18.505,1.315,25.804,0.819C728.002,963.882,728.479,963.958,728.65,959.251z
				 M726.821,947.226C727.05,947.473,727.088,947.359,726.821,947.226L726.821,947.226z"/>
			<path d="M732.919,982.082c3.106,4.288,2.973,12.464,2.554,17.438c-0.419,5.107-1.544,10.653-6.994,12.311
				c-5.546,1.696-12.445,1.429-18.277,1.391c-0.267,0-0.553,0-0.82,0c-5.451,0.019-12.521,0.438-16.981-3.221
				c-0.858-0.686-1.239-1.487-1.334-2.306c-2.325-2.897-3.583-7.09-3.716-11.359c-0.248-7.566,2.954-15.437,9.739-17.019
				c4.593-1.067,9.586-1.334,14.465-1.334c2.058,0,4.097,0.038,6.079,0.095C722.285,978.195,729.813,977.813,732.919,982.082z
				 M727.926,999.52c0.133-3.526-0.343-8.729-2.001-12.102c-0.229-0.076-0.553-0.133-1.048-0.095
				c-2.077,0.114-4.44-0.476-6.556-0.553c-4.707-0.172-9.434-0.057-14.141,0.324c-4.402,0.343-6.766,0-7.909,4.631
				c-0.877,3.64-0.648,8.214,0.934,11.816c0.038,0.019,0.095,0.038,0.133,0.057c6.746,3.526,18.505,1.315,25.785,0.82
				C727.278,1004.151,727.755,1004.228,727.926,999.52z M726.097,987.495C726.325,987.743,726.363,987.628,726.097,987.495
				L726.097,987.495z"/>
			<path d="M731.471,1021.17c3.106,4.307,2.973,12.483,2.554,17.457c-0.419,5.089-1.544,10.653-6.994,12.312
				c-5.813,1.772-13.112,1.372-19.096,1.391c-5.47,0.019-12.521,0.438-17-3.221c-0.839-0.686-1.239-1.506-1.315-2.306
				c-2.325-2.897-3.583-7.09-3.716-11.378c-0.248-7.566,2.954-15.418,9.739-17c4.612-1.086,9.643-1.353,14.541-1.353
				c2.02,0,4.04,0.038,6.003,0.095C720.837,1017.301,728.365,1016.901,731.471,1021.17z M726.478,1038.627
				c0.133-3.526-0.343-8.729-2.001-12.102c-0.229-0.076-0.553-0.133-1.048-0.114c-2.077,0.114-4.44-0.457-6.556-0.534
				c-4.707-0.172-9.453-0.076-14.141,0.305c-4.402,0.362-6.766,0.019-7.909,4.65c-0.877,3.621-0.648,8.214,0.934,11.816
				c0.038,0.019,0.076,0.019,0.133,0.057c6.747,3.526,18.505,1.315,25.785,0.819C725.83,1043.239,726.306,1043.335,726.478,1038.627
				z M724.648,1026.602C724.877,1026.83,724.915,1026.735,724.648,1026.602L724.648,1026.602z"/>
			<path d="M729.737,579.389c2.134,5.813,2.554,13.207,2.554,19.153c0,3.926-0.477,8.557-2.573,11.949
				c0.476,2.077-0.457,4.536-2.802,5.012c-14.789,2.935-31.617,0.953-46.673,0.877c-15.837-0.076-31.655-0.152-47.492-0.191
				c-15.818-0.038-31.655-0.114-47.473-0.076c-14.179,0.038-30.493,2.42-44.386-0.648c-1.067,0.267-2.249,0.21-3.469-0.4
				c-12.464-6.118-5.298-26.891-1.925-36.477c0.991-2.84,3.831-3.583,6.079-2.878c0.667-0.629,1.582-0.991,2.763-0.858
				c15.227,1.772,31.35,0.362,46.673,0.057c14.98-0.305,29.959-0.686,44.939-0.686c15.608-0.019,31.198-0.038,46.806-0.038
				c14.37-0.019,30.016-1.734,44.138,1.01C728.917,575.596,729.87,577.54,729.737,579.389z M723.734,594.559
				c-0.476-3.621-1.334-7.356-1.658-10.844c-13.398,1.715-27.844,0.267-41.184,0.267c-14.979-0.019-29.959-0.038-44.939-0.038
				c-15.608-0.019-31.198-0.419-46.806-0.743c-14.713-0.286-30.188-1.601-44.805,0.114c-0.248,0.019-0.496,0-0.724,0
				c-1.029,3.526-1.734,7.223-2.268,10.825c-0.4,2.611-1.925,10.73,1.067,12.388c0.324,0.191,0.61,0.381,0.858,0.61
				c13.341-2.325,28.663-0.21,42.004-0.172c15.818,0.038,31.655-0.038,47.473-0.076c15.837-0.038,31.655-0.114,47.492-0.191
				c13.36-0.076,28.034-1.639,41.508,0.057c1.029-1.467,1.639-3.087,1.963-4.784c-10.082,1.753-21.802,0.419-31.827-0.591
				c-4.021-0.4-4.021-5.851,0-6.251C701.912,594.14,713.633,592.787,723.734,594.559z"/>
			<path d="M728.86,1062.316c3.125,4.288,2.973,12.464,2.554,17.438c-0.419,5.088-1.525,10.653-6.975,12.311
				c-5.813,1.772-13.112,1.372-19.115,1.391c-5.451,0.019-12.502,0.438-16.981-3.221c-0.839-0.686-1.239-1.506-1.334-2.306
				c-6.461-8.042-4.574-25.9,6.022-28.377c6.556-1.544,13.874-1.429,20.544-1.258
				C718.226,1058.428,725.773,1058.028,728.86,1062.316z M723.867,1079.754c0.133-3.526-0.324-8.729-1.982-12.102
				c-0.229-0.076-0.572-0.133-1.048-0.114c-2.077,0.114-4.46-0.457-6.556-0.534c-4.707-0.172-9.453-0.076-14.16,0.305
				c-4.402,0.362-6.766,0.019-7.89,4.65c-0.896,3.621-0.648,8.214,0.915,11.816c0.038,0.019,0.095,0.019,0.133,0.057
				c6.766,3.526,18.505,1.315,25.804,0.819C723.219,1084.366,723.695,1084.462,723.867,1079.754z M722.056,1067.729
				C722.285,1067.957,722.323,1067.862,722.056,1067.729L722.056,1067.729z"/>
			<path fill="#555661" d="M726.649,947.149c1.658,3.373,2.135,8.595,2.001,12.102c-0.172,4.707-0.648,4.631-4.784,4.898
				c-7.299,0.496-19.039,2.706-25.804-0.819c-0.038-0.019-0.095-0.038-0.133-0.057c-1.582-3.602-1.81-8.176-0.934-11.816
				c1.143-4.631,3.507-4.288,7.909-4.631c4.707-0.381,9.434-0.495,14.141-0.324c2.115,0.076,4.479,0.667,6.575,0.553
				C726.097,947.016,726.44,947.073,726.649,947.149z"/>
			<path fill="#555661" d="M725.925,987.419c1.658,3.373,2.134,8.576,2.001,12.102c-0.172,4.707-0.648,4.631-4.803,4.898
				c-7.28,0.495-19.039,2.706-25.785-0.82c-0.038-0.019-0.095-0.038-0.133-0.057c-1.582-3.602-1.81-8.176-0.934-11.816
				c1.143-4.631,3.507-4.288,7.909-4.631c4.707-0.381,9.434-0.495,14.141-0.324c2.115,0.076,4.479,0.667,6.556,0.553
				C725.372,987.285,725.696,987.342,725.925,987.419z"/>
			<path d="M725.811,635.286c4.574,0.476,4.555,6.613,0,7.09c-15.399,1.62-31.141,0.819-46.616,1.067
				c-15.513,0.248-31.026,0.495-46.539,0.743c-31.636,0.496-63.329,1.22-94.966,0.362c-7.356-0.191-7.337-11.225,0-11.435
				c31.636-0.858,63.329-0.133,94.966,0.381c15.513,0.248,31.026,0.476,46.539,0.724
				C694.67,634.466,710.412,633.666,725.811,635.286z"/>
			<path fill="#555661" d="M724.477,1026.526c1.658,3.373,2.135,8.576,2.001,12.102c-0.172,4.707-0.648,4.612-4.803,4.898
				c-7.28,0.495-19.039,2.706-25.785-0.819c-0.057-0.038-0.095-0.038-0.133-0.057c-1.582-3.602-1.81-8.195-0.934-11.816
				c1.143-4.631,3.507-4.288,7.909-4.65c4.688-0.381,9.434-0.477,14.141-0.305c2.115,0.076,4.479,0.648,6.556,0.534
				C723.924,1026.392,724.248,1026.449,724.477,1026.526z"/>
			<path d="M724.858,721.942c7.623,0.972,6.06,11.511-0.286,10.863c-15.856,1.982-32.608,0.629-48.579,0.686
				c-15.037,0.038-30.073,0.076-45.129,0.076c-15.647,0.019-31.312,0.019-46.978,0.038c-14.808,0-29.997,1.029-44.672-1.01
				c-5.184-0.724-5.184-9.739,0-10.463c15.284-2.134,31.141-1.01,46.539-1.01c15.037,0.019,30.073,0.019,45.11,0.038
				c15.666,0,31.331,0.038,46.997,0.095C693.336,721.294,709.516,719.998,724.858,721.942z"/>
			<path d="M723.047,700.559c1.696,0.839,2.344,2.382,2.23,3.945c0.095,1.544-0.534,3.087-2.23,3.926
				c-4.555,2.23-26.738,2.02-31.541,2.02c-16.809,0-33.618,0-50.427,0c-16.79,0-33.599,0-50.408,0
				c-16.218,0-33.961,1.982-49.913-0.991c-4.917-0.915-4.917-9.014,0-9.929c15.971-2.973,33.675-0.991,49.913-0.991
				c16.809,0,33.618,0,50.408,0c16.809,0,33.618,0,50.427,0C697.643,698.539,719.827,698.977,723.047,700.559z"/>
			<path d="M724.82,659.527c4.345,0.686,4.345,8.1,0,8.786c-14.503,2.306-30.15,0.858-44.824,0.972
				c-16.142,0.114-32.284-0.057-48.426,0.114c-16.142,0.152-32.284,0.419-48.426,0.419c-15.018,0-31.198,1.582-45.968-1.315
				c-4.555-0.877-4.555-8.29,0-9.186c14.732-2.878,30.988-1.296,45.968-1.296c16.142,0,32.284,0.267,48.426,0.419
				s32.284,0,48.426,0.114C694.689,658.651,710.298,657.202,724.82,659.527z"/>
			<path fill="#555661" d="M721.885,1067.652c1.658,3.373,2.115,8.576,1.982,12.102c-0.172,4.707-0.648,4.612-4.784,4.898
				c-7.299,0.495-19.039,2.706-25.804-0.819c-0.038-0.038-0.095-0.038-0.133-0.057c-1.563-3.602-1.81-8.195-0.915-11.816
				c1.124-4.631,3.488-4.288,7.89-4.65c4.707-0.381,9.453-0.476,14.16-0.305c2.096,0.076,4.479,0.648,6.556,0.534
				C721.313,1067.519,721.656,1067.576,721.885,1067.652z"/>
			<path fill="#555661" d="M722.075,583.715c0.324,3.488,1.182,7.223,1.658,10.844c-10.101-1.772-21.821-0.419-31.846,0.572
				c-4.021,0.4-4.021,5.851,0,6.251c10.024,1.01,21.745,2.344,31.827,0.591c-0.324,1.696-0.934,3.316-1.963,4.784
				c-13.474-1.696-28.148-0.133-41.508-0.057c-15.837,0.076-31.655,0.152-47.492,0.191c-15.818,0.038-31.655,0.114-47.473,0.076
				c-13.341-0.038-28.663-2.154-42.004,0.172c-0.248-0.229-0.534-0.419-0.858-0.61c-2.992-1.658-1.467-9.777-1.067-12.388
				c0.534-3.602,1.239-7.299,2.268-10.825c0.229,0,0.477,0.019,0.724,0c14.617-1.715,30.092-0.4,44.805-0.114
				c15.608,0.324,31.198,0.724,46.806,0.743c14.98,0,29.959,0.019,44.939,0.038C694.232,583.982,708.678,585.43,722.075,583.715z
				 M667.532,594.445c3.64-0.152,3.659-5.489,0-5.66c-20.297-0.877-40.593-1.163-60.909-1.124
				c-18.848,0.019-39.374-2.192-57.955,0.953c-2.973,0.496-2.973,5.508,0,6.022c18.581,3.145,39.107,0.915,57.955,0.953
				C626.938,595.607,647.235,595.321,667.532,594.445z"/>
			<path d="M720.722,785.214c1.296,27.005,0.629,54.029,0.057,81.034c-0.248,12.064-0.476,24.108-1.163,36.153
				c-0.21,3.545,0.343,10.082-0.972,14.465c0.286,1.81-0.248,3.754-2.058,5.108c-3.716,2.763-9.491,3.049-13.912,3.621
				c-8.671,1.124-17.419,1.62-26.167,1.982c-16.485,0.686-33.008,0.8-49.512,1.01c-19.401,0.229-38.783,1.601-58.184,1.982
				c-7.909,0.133-26.548,3.049-31.75-5.088c-3.507-5.508-2.916-15.323-3.316-21.497c-0.858-12.597-1.163-25.233-1.372-37.849
				c-0.419-26.91-0.553-53.972,1.105-80.825c0.324-5.089-0.381-13.626,3.24-17.762c3.449-3.888,11.073-4.25,15.78-4.917
				c24.413-3.43,49.474-3.621,74.078-3.678c24.813-0.057,50.141-0.076,74.745,3.526c4.86,0.705,12.674,1.163,16.294,5.089
				C721.313,771.607,720.475,780.202,720.722,785.214z M713.194,856.548c0.152-25.747,1.029-51.857-1.01-77.547
				c-0.095-1.182-0.457-4.803-0.591-5.736c-0.305,0.191-2.744-0.972-3.735-1.258c-7.623-2.096-15.894-2.42-23.727-2.935
				c-24.89-1.696-49.932-1.639-74.84-0.953c-19.954,0.534-41.07,0.381-60.661,4.631c-1.62,0.362-3.297,0.762-4.574,1.277
				c0,0,0,0,0,0.019c0.057,0.819-0.286,2.058-0.381,2.859c-1.029,8.576-1.067,17.362-1.315,25.976
				c-0.743,26.109-0.743,52.257,0.057,78.347c0.305,10.139,0.629,20.316,1.677,30.416c0.286,2.744,0.991,5.451,1.334,8.157
				c1.391,0.229,2.782,0.515,4.193,0.667c28.434,2.84,57.879-2.096,86.409-2.382c14.255-0.152,28.511-0.381,42.747-1.029
				c7.414-0.343,14.865-0.667,22.241-1.506c3.183-0.343,7.814-0.305,10.463-2.249c0.724-4.402,0.496-12.959,0.629-16.314
				C712.699,883.515,713.118,870.022,713.194,856.548z M544.056,773.589C544.418,772.979,544.075,772.693,544.056,773.589
				L544.056,773.589z"/>
			<path fill="#555661" d="M712.184,779.001c2.039,25.69,1.163,51.799,1.01,77.547c-0.076,13.474-0.495,26.967-1.086,40.441
				c-0.133,3.354,0.095,11.911-0.629,16.314c-2.649,1.944-7.28,1.906-10.463,2.249c-7.375,0.839-14.827,1.163-22.241,1.506
				c-14.236,0.648-28.492,0.877-42.747,1.029c-28.53,0.286-57.974,5.222-86.409,2.382c-1.41-0.152-2.802-0.438-4.193-0.667
				c-0.343-2.706-1.048-5.412-1.334-8.157c-1.048-10.101-1.372-20.278-1.677-30.416c-0.8-26.09-0.8-52.238-0.057-78.347
				c0.248-8.614,0.286-17.4,1.315-25.976c0.095-0.8,0.438-2.039,0.381-2.859c0-0.019,0-0.019,0-0.019
				c1.277-0.515,2.954-0.915,4.574-1.277c19.591-4.25,40.708-4.097,60.661-4.631c24.909-0.686,49.951-0.743,74.84,0.953
				c7.833,0.515,16.104,0.839,23.727,2.935c0.991,0.286,3.43,1.448,3.735,1.258C711.727,774.199,712.089,777.82,712.184,779.001z
				 M708.449,853.956c2.058-3.183-2.02-7.242-5.203-5.203c-6.518,4.174-12.083,9.91-17.648,15.246
				c-5.946,5.698-12.14,11.111-18.258,16.599c-3.792,3.373,1.124,9.701,5.412,7.013C685.999,879.284,699.93,867.182,708.449,853.956
				z M670.238,862.113c4.383-4.479-2.325-11.168-6.861-6.861c-15.589,14.713-34.361,26.776-46.959,44.367
				c-2.077,2.897,2.115,7.185,5.012,5.012C638.621,891.805,655.201,877.397,670.238,862.113z M659.394,804.063
				c3.754-3.792-2.058-9.605-5.851-5.851c-34.495,34.152-70.514,67.503-102.455,104.094c-2.535,2.897,1.296,6.727,4.212,4.212
				C592.12,874.844,625.261,838.557,659.394,804.063z M619.029,782.146c4.402-3.754-1.887-9.796-6.27-6.289
				c-20.983,16.885-45.949,34.361-60.985,57.098c-2.763,4.193,3.164,8.023,6.594,5.088c10.406-8.938,19.477-19.534,29.616-28.816
				C598.123,799.965,608.567,791.046,619.029,782.146z M606.356,819.614c3.621-4.04-2.344-10.024-5.984-5.984
				c-9.948,11.054-21.497,21.097-29.464,33.752c-2.039,3.259,2.668,6.88,5.336,4.097
				C586.364,840.978,596.579,830.458,606.356,819.614z"/>
			<path fill="#BDBEC7" d="M711.575,972.973l-0.019,5.012c-4.879,0-9.872,0.267-14.465,1.334c-6.785,1.582-9.986,9.453-9.739,17.019
				l-2.115,0.076c-0.133-4.974-1.334-9.72-3.297-12.426c-3.125-4.307-10.768-3.888-15.456-4.002
				c-2.058-0.057-4.155-0.114-6.289-0.114l0.019-4.993c5.813,0.019,12.54,0.248,18.01-1.41c5.736-1.734,7.985-9.758,7.757-17.324
				l2.096-0.076c0.133,4.269,1.391,8.462,3.716,11.359c0.095,0.819,0.477,1.62,1.334,2.306c4.46,3.659,11.53,3.24,16.981,3.24
				C710.584,972.973,711.079,972.973,711.575,972.973z"/>
			<path fill="#555661" d="M709.821,500.851c-0.915,9.7,0.057,19.382-2.42,29.063c-5.679,0.991-11.549,0.991-17.476,0.495
				c-0.057-11.606-0.534-23.251-1.448-34.838c2.325,0.095,4.65,0.286,6.899,0.61c-0.057,0.324-0.095,0.648-0.076,1.01
				c0.095,5.393-2.23,11.092-0.819,16.409c0.629,2.344,4.04,3.507,5.736,1.506c3.735-4.421,4.879-10.901,4.555-16.638
				C706.562,499.117,708.239,499.917,709.821,500.851z"/>
			<path d="M703.246,848.753c3.183-2.039,7.261,2.02,5.203,5.203c-8.519,13.226-22.45,25.328-35.695,33.656
				c-4.288,2.687-9.205-3.64-5.412-7.013c6.118-5.489,12.311-10.901,18.258-16.599C691.164,858.663,696.728,852.927,703.246,848.753
				z"/>
			<path d="M697.052,1123.397c2.935-0.133,4.307,4.421,1.544,5.717c-8.023,3.812-18.048,4.288-26.834,4.898
				c-11.721,0.819-23.479,1.143-35.219,1.448c-25.061,0.667-50.16,0.591-75.241-0.019c-3.945-0.095-3.945-6.041,0-6.137
				c23.88-0.61,47.721-1.22,71.581-1.982c11.549-0.362,23.098-0.819,34.628-1.296
				C677.442,1125.627,687.199,1123.854,697.052,1123.397z"/>
			<path d="M685.98,956.145c0.229,7.566-2.02,15.589-7.757,17.324c-5.47,1.658-12.197,1.429-18.01,1.41c-0.476,0-0.934,0-1.391,0
				c-5.527,0-12.654,0.438-17.209-3.24c-0.858-0.686-1.239-1.467-1.334-2.287c-2.382-2.897-3.621-7.109-3.754-11.378
				c-0.248-7.566,3.03-15.437,9.834-17.019c6.651-1.544,14.084-1.429,20.849-1.239c4.688,0.114,12.33-0.305,15.475,4.002
				C684.646,946.425,685.846,951.171,685.98,956.145z M677.709,961.157c0.133-3.469-0.305-8.729-1.982-12.064
				c-0.229-0.095-0.591-0.172-1.124-0.133c-2.115,0.114-4.536-0.476-6.689-0.553c-4.784-0.172-9.605-0.057-14.37,0.324
				c-4.402,0.343-6.937-0.019-8.1,4.631c-0.896,3.64-0.648,8.214,0.953,11.816c0.057,0.019,0.114,0.038,0.152,0.057
				c6.899,3.564,18.81,1.334,26.243,0.839C676.984,965.788,677.537,965.902,677.709,961.157z M675.898,949.169
				C676.089,949.36,676.108,949.284,675.898,949.169L675.898,949.169z"/>
			<path d="M685.237,996.414c0.229,7.566-2.02,15.589-7.757,17.324c-5.641,1.715-12.654,1.429-18.562,1.391
				c-0.267,0-0.553,0-0.819,0c-5.546,0.019-12.654,0.457-17.228-3.221c-0.839-0.686-1.239-1.467-1.334-2.287
				c-2.382-2.897-3.621-7.09-3.754-11.378c-0.229-7.566,3.03-15.437,9.834-17.019c4.65-1.086,9.662-1.353,14.579-1.353
				c2.134,0,4.231,0.057,6.289,0.114c4.688,0.114,12.331-0.305,15.456,4.002C683.902,986.694,685.103,991.44,685.237,996.414z
				 M676.965,1001.426c0.133-3.469-0.305-8.729-1.982-12.064c-0.229-0.095-0.572-0.172-1.124-0.133
				c-2.115,0.114-4.536-0.477-6.689-0.553c-4.784-0.172-9.586-0.057-14.37,0.324c-4.402,0.343-6.937-0.019-8.1,4.631
				c-0.896,3.64-0.648,8.214,0.953,11.816c0.057,0.019,0.114,0.038,0.172,0.057c6.899,3.545,18.791,1.334,26.243,0.839
				C676.241,1006.057,676.794,1006.172,676.965,1001.426z"/>
			<path d="M683.769,1035.502c0.229,7.566-2.02,15.589-7.757,17.324c-5.908,1.791-13.321,1.391-19.401,1.41
				c-5.546,0.019-12.654,0.438-17.209-3.221c-0.858-0.686-1.258-1.487-1.334-2.287c-2.382-2.916-3.621-7.109-3.754-11.397
				c-0.248-7.566,3.03-15.437,9.834-17c4.707-1.086,9.796-1.353,14.751-1.353c2.077,0,4.117,0.038,6.099,0.095
				c4.688,0.133,12.331-0.286,15.475,4.002C682.435,1025.782,683.636,1030.528,683.769,1035.502z M675.498,1040.533
				c0.133-3.488-0.305-8.729-1.982-12.064c-0.229-0.095-0.591-0.172-1.124-0.152c-2.134,0.133-4.536-0.457-6.689-0.534
				c-4.784-0.172-9.605-0.076-14.37,0.305c-4.402,0.343-6.937-0.019-8.1,4.65c-0.896,3.621-0.648,8.214,0.953,11.797
				c0.057,0.038,0.095,0.038,0.152,0.076c6.899,3.545,18.81,1.315,26.243,0.819C674.755,1045.164,675.326,1045.278,675.498,1040.533
				z"/>
			<path fill="#555661" d="M682.53,495.515c-0.705,11.339-0.172,22.717-0.057,34.076c-3.049-0.419-6.099-0.896-9.129-1.391
				c1.62-10.482,3.011-21.879,1.487-32.322C677.366,495.706,679.957,495.572,682.53,495.515z"/>
			<path d="M677.823,1064.222c4.955,6.804,5.031,26.853-4.46,29.749c-5.908,1.772-13.302,1.372-19.401,1.391
				c-5.527,0.019-12.654,0.438-17.209-3.221c-0.839-0.686-1.239-1.486-1.334-2.287c-6.556-8.042-4.574-25.919,6.08-28.396
				c6.651-1.544,14.084-1.429,20.868-1.258C667.055,1060.334,674.678,1059.915,677.823,1064.222z M672.849,1081.66
				c0.133-3.488-0.305-8.729-1.982-12.064c-0.229-0.095-0.591-0.172-1.124-0.152c-2.115,0.133-4.536-0.457-6.689-0.534
				c-4.784-0.172-9.586-0.076-14.37,0.305c-4.402,0.343-6.937-0.019-8.1,4.65c-0.896,3.621-0.648,8.214,0.953,11.797
				c0.057,0.038,0.114,0.038,0.172,0.076c6.899,3.545,18.791,1.315,26.224,0.819C672.125,1086.291,672.677,1086.405,672.849,1081.66
				z"/>
			<path fill="#555661" d="M675.727,949.093c1.677,3.335,2.115,8.595,1.982,12.064c-0.172,4.745-0.724,4.631-4.917,4.917
				c-7.433,0.496-19.344,2.725-26.243-0.839c-0.038-0.019-0.095-0.038-0.152-0.057c-1.601-3.602-1.849-8.176-0.953-11.816
				c1.163-4.65,3.697-4.288,8.1-4.631c4.764-0.381,9.586-0.495,14.37-0.324c2.154,0.076,4.574,0.667,6.689,0.553
				C675.136,948.922,675.498,948.998,675.727,949.093z"/>
			<path fill="#555661" d="M674.983,989.363c1.677,3.335,2.115,8.595,1.982,12.064c-0.172,4.745-0.724,4.631-4.898,4.917
				c-7.452,0.496-19.344,2.706-26.243-0.839c-0.057-0.019-0.114-0.038-0.172-0.057c-1.601-3.602-1.849-8.176-0.953-11.816
				c1.163-4.65,3.697-4.288,8.1-4.631c4.784-0.381,9.586-0.496,14.37-0.324c2.154,0.076,4.574,0.667,6.689,0.553
				C674.412,989.191,674.755,989.267,674.983,989.363z"/>
			<path fill="#555661" d="M673.516,1028.469c1.677,3.335,2.115,8.576,1.982,12.064c-0.172,4.745-0.743,4.631-4.917,4.898
				c-7.433,0.495-19.344,2.725-26.243-0.819c-0.057-0.038-0.095-0.038-0.152-0.076c-1.601-3.583-1.849-8.176-0.953-11.797
				c1.163-4.669,3.697-4.307,8.1-4.65c4.764-0.381,9.586-0.476,14.37-0.305c2.154,0.076,4.555,0.667,6.689,0.534
				C672.925,1028.298,673.287,1028.374,673.516,1028.469z"/>
			<path fill="#555661" d="M670.867,1069.596c1.677,3.335,2.115,8.576,1.982,12.064c-0.172,4.745-0.724,4.631-4.917,4.898
				c-7.433,0.495-19.325,2.725-26.224-0.819c-0.057-0.038-0.114-0.038-0.172-0.076c-1.601-3.583-1.849-8.176-0.953-11.797
				c1.163-4.669,3.697-4.307,8.1-4.65c4.784-0.381,9.586-0.476,14.37-0.305c2.154,0.076,4.574,0.667,6.689,0.534
				C670.276,1069.425,670.638,1069.501,670.867,1069.596z"/>
			<path d="M663.377,855.252c4.536-4.307,11.244,2.382,6.861,6.861c-15.037,15.284-31.617,29.692-48.807,42.518
				c-2.897,2.173-7.09-2.115-5.012-5.012C629.016,882.028,647.788,869.965,663.377,855.252z"/>
			<path d="M667.532,588.784c3.659,0.172,3.64,5.508,0,5.66c-20.297,0.877-40.593,1.163-60.909,1.143
				c-18.848-0.038-39.374,2.192-57.955-0.953c-2.973-0.515-2.973-5.527,0-6.022c18.581-3.145,39.107-0.934,57.955-0.953
				C626.938,587.622,647.235,587.908,667.532,588.784z"/>
			<path fill="#555661" d="M665.969,496.697c-1.563,9.777-1.239,20.106-2.058,30.054c-0.991-0.133-1.982-0.267-2.973-0.381
				c-0.381-4.155-1.048-8.328-1.124-12.54c-0.076-5.47,0.191-11.015-0.686-16.409C661.281,497.192,663.568,496.944,665.969,496.697z
				"/>
			<path fill="#BDBEC7" d="M660.214,974.879l-0.019,4.993c-4.917,0-9.929,0.267-14.579,1.353
				c-6.804,1.582-10.063,9.453-9.834,17.019l-2.192,0.076c-0.133-4.974-1.334-9.72-3.297-12.426
				c-3.126-4.307-10.768-3.888-15.456-4.002c-2.058-0.057-4.155-0.114-6.289-0.114l0.019-4.993c5.794,0.019,12.54,0.248,18.01-1.41
				c5.736-1.734,7.985-9.758,7.757-17.324l2.192-0.076c0.133,4.269,1.372,8.481,3.754,11.378c0.095,0.82,0.476,1.601,1.334,2.287
				c4.555,3.678,11.682,3.24,17.209,3.24C659.28,974.879,659.737,974.879,660.214,974.879z"/>
			<path d="M653.543,798.212c3.793-3.754,9.605,2.058,5.851,5.851c-34.133,34.495-67.274,70.781-104.094,102.455
				c-2.916,2.516-6.747-1.315-4.212-4.212C583.029,865.715,619.048,832.364,653.543,798.212z"/>
			<path fill="#BDBEC7" d="M658.918,1015.129l-0.019,3.85c-4.955,0-10.044,0.267-14.751,1.353c-6.804,1.563-10.082,9.434-9.834,17
				l-2.192,0.076c-0.133-4.974-1.334-9.72-3.297-12.426c-3.145-4.288-10.768-3.869-15.456-4.002
				c-2.001-0.057-4.04-0.095-6.099-0.095l0.019-3.85c5.908,0.038,12.902,0.324,18.543-1.391c5.736-1.734,7.985-9.758,7.757-17.324
				l2.192-0.076c0.133,4.288,1.372,8.481,3.754,11.378c0.095,0.82,0.496,1.601,1.334,2.287c4.574,3.678,11.682,3.24,17.228,3.221
				C658.365,1015.129,658.651,1015.129,658.918,1015.129z"/>
			<path fill="#555661" d="M640.641,472.245c0,0.038,0,0.076,0,0.114c-0.21,16.752-0.438,33.58,0.324,50.332
				c-1.868,0.267-3.754,0.553-5.679,0.819c2.173-8.519,0.781-19.344,0.515-27.672c-0.286-8.938-0.8-17.857-1.277-26.776
				C636.658,469.901,638.716,470.949,640.641,472.245z"/>
			<path d="M624.366,951.171c-0.019-0.038-0.057-0.076-0.095-0.095C624.308,951.113,624.346,951.132,624.366,951.171z
				 M634.333,958.05c0.229,7.566-2.02,15.589-7.757,17.324c-5.47,1.658-12.216,1.429-18.01,1.41c-0.457,0-0.915,0-1.372,0
				c-5.546,0-12.654,0.438-17.228-3.24c-0.839-0.686-1.239-1.467-1.334-2.287c-2.382-2.897-3.621-7.09-3.754-11.378
				c-0.229-7.566,3.03-15.437,9.834-17.019c6.651-1.544,14.084-1.429,20.868-1.239c4.688,0.114,12.33-0.305,15.456,4.002
				C632.999,948.331,634.199,953.076,634.333,958.05z M626.062,963.063c0.133-3.469-0.305-8.729-1.982-12.064
				c-0.229-0.095-0.572-0.172-1.124-0.133c-2.115,0.114-4.536-0.476-6.689-0.553c-4.784-0.172-9.586-0.057-14.37,0.324
				c-4.402,0.343-6.937-0.019-8.1,4.631c-0.896,3.64-0.648,8.214,0.953,11.816c0.057,0.019,0.114,0.038,0.172,0.057
				c6.899,3.564,18.791,1.334,26.243,0.839C625.338,967.694,625.89,967.808,626.062,963.063z"/>
			<path d="M623.622,991.421c0.019,0.038,0.038,0.038,0.038,0.038S623.641,991.421,623.622,991.421z M633.59,998.32
				c0.229,7.566-2.02,15.589-7.757,17.324c-5.641,1.715-12.635,1.429-18.543,1.391c-0.286,0-0.553,0-0.839,0
				c-5.546,0.019-12.654,0.457-17.209-3.221c-0.858-0.686-1.258-1.467-1.353-2.287c-2.363-2.897-3.602-7.09-3.735-11.378
				c-0.248-7.566,3.011-15.437,9.815-17.019c4.65-1.086,9.662-1.353,14.579-1.353c2.135,0,4.231,0.057,6.289,0.114
				c4.688,0.114,12.33-0.305,15.456,4.002C632.256,988.6,633.456,993.346,633.59,998.32z M625.338,1003.332
				c0.114-3.469-0.305-8.729-1.982-12.064c-0.248-0.095-0.591-0.172-1.143-0.133c-2.115,0.114-4.517-0.476-6.67-0.553
				c-4.784-0.172-9.605-0.057-14.37,0.324c-4.421,0.343-6.937-0.019-8.1,4.631c-0.915,3.64-0.648,8.214,0.934,11.816
				c0.057,0.019,0.114,0.038,0.172,0.057c6.899,3.545,18.81,1.334,26.243,0.839C624.594,1007.963,625.147,1008.077,625.338,1003.332
				z"/>
			<path d="M632.122,1037.408c0.229,7.566-2.02,15.589-7.757,17.324c-5.908,1.791-13.302,1.391-19.401,1.41
				c-5.527,0.019-12.635,0.438-17.209-3.221c-0.839-0.686-1.239-1.486-1.334-2.287c-2.516-3.087-3.773-7.604-3.773-12.14
				c0-7.337,3.278-14.732,9.853-16.256c4.707-1.086,9.796-1.353,14.77-1.353c2.058,0,4.097,0.038,6.099,0.095
				c4.688,0.133,12.311-0.286,15.456,4.002C630.788,1027.688,631.989,1032.433,632.122,1037.408z M623.851,1042.439
				c0.133-3.488-0.305-8.729-1.982-12.064c-0.229-0.095-0.591-0.172-1.124-0.152c-2.115,0.133-4.536-0.457-6.689-0.534
				c-4.784-0.172-9.586-0.076-14.37,0.305c-4.402,0.343-6.937-0.019-8.1,4.65c-0.896,3.621-0.648,8.214,0.953,11.797
				c0.057,0.038,0.114,0.038,0.172,0.076c6.899,3.545,18.791,1.315,26.224,0.819C623.127,1047.07,623.68,1047.184,623.851,1042.439z
				"/>
			<path fill="#555661" d="M628.482,494.562c0.286,9.853-0.629,20.068,0.057,29.845c-8.976,1.105-18.257,1.81-27.196,1.182
				c0.819-9.605,0.438-19.382,0.21-29.006c-0.21-9.033-0.095-18.658-1.791-27.634c4.002-0.991,8.157-1.772,12.33-2.211
				c-0.743,7.661-0.743,15.38-0.934,23.079c-0.191,8.786-1.734,18.772,0.858,27.253c1.01,3.354,5.755,3.335,6.785,0
				c2.611-8.462,1.277-18.448,1.334-27.253c0.057-7.814,0.248-15.647-0.476-23.422c2.821,0.038,5.584,0.286,8.271,0.8
				C627.663,476.305,628.196,485.452,628.482,494.562z"/>
			<path d="M621.412,1071.655c0.019,0.038,0.038,0.038,0.038,0.038S621.431,1071.655,621.412,1071.655z M628.082,1066.128
				c4.955,6.804,5.031,26.853-4.46,29.749c-5.908,1.772-13.302,1.372-19.382,1.391c-5.546,0.019-12.654,0.438-17.228-3.221
				c-0.839-0.686-1.239-1.486-1.334-2.287c-6.556-8.042-4.574-25.919,6.079-28.396c6.651-1.544,14.084-1.429,20.868-1.258
				C617.314,1062.24,624.956,1061.821,628.082,1066.128z M623.127,1083.566c0.114-3.488-0.305-8.729-1.982-12.064
				c-0.248-0.095-0.591-0.172-1.143-0.152c-2.115,0.133-4.536-0.457-6.67-0.534c-4.784-0.172-9.605-0.076-14.37,0.305
				c-4.421,0.343-6.956-0.019-8.1,4.65c-0.915,3.621-0.648,8.214,0.934,11.797c0.057,0.038,0.114,0.038,0.172,0.076
				c6.899,3.545,18.81,1.315,26.243,0.819C622.384,1088.197,622.936,1088.311,623.127,1083.566z"/>
			<path fill="#555661" d="M624.08,950.999c1.677,3.335,2.115,8.595,1.982,12.064c-0.172,4.745-0.724,4.631-4.898,4.917
				c-7.452,0.495-19.344,2.725-26.243-0.839c-0.057-0.019-0.114-0.038-0.172-0.057c-1.601-3.602-1.849-8.176-0.953-11.816
				c1.163-4.65,3.697-4.288,8.1-4.631c4.784-0.381,9.586-0.495,14.37-0.324c2.154,0.076,4.574,0.667,6.689,0.553
				C623.508,950.827,623.851,950.904,624.08,950.999z"/>
			<path fill="#555661" d="M623.356,991.268c1.677,3.335,2.096,8.595,1.982,12.064c-0.191,4.745-0.743,4.631-4.917,4.917
				c-7.433,0.495-19.344,2.706-26.243-0.839c-0.057-0.019-0.114-0.038-0.172-0.057c-1.582-3.602-1.849-8.176-0.934-11.816
				c1.163-4.65,3.678-4.288,8.1-4.631c4.764-0.381,9.586-0.495,14.37-0.324c2.154,0.076,4.555,0.667,6.67,0.553
				C622.765,991.097,623.108,991.173,623.356,991.268z"/>
			<path fill="#555661" d="M621.869,1030.375c1.677,3.335,2.115,8.576,1.982,12.064c-0.172,4.745-0.724,4.631-4.917,4.898
				c-7.433,0.496-19.325,2.725-26.224-0.819c-0.057-0.038-0.114-0.038-0.172-0.076c-1.601-3.583-1.849-8.176-0.953-11.797
				c1.162-4.669,3.697-4.307,8.1-4.65c4.784-0.381,9.586-0.476,14.37-0.305c2.154,0.076,4.574,0.667,6.689,0.534
				C621.278,1030.204,621.64,1030.28,621.869,1030.375z"/>
			<path fill="#555661" d="M621.145,1071.502c1.677,3.335,2.096,8.576,1.982,12.064c-0.191,4.745-0.743,4.631-4.917,4.898
				c-7.433,0.496-19.344,2.725-26.243-0.819c-0.057-0.038-0.114-0.038-0.172-0.076c-1.582-3.583-1.849-8.176-0.934-11.797
				c1.143-4.669,3.678-4.307,8.1-4.65c4.764-0.381,9.586-0.476,14.37-0.305c2.134,0.076,4.555,0.667,6.67,0.534
				C620.554,1071.331,620.897,1071.407,621.145,1071.502z"/>
			<path d="M612.759,775.857c4.383-3.507,10.672,2.535,6.27,6.289c-10.463,8.9-20.907,17.819-31.045,27.081
				c-10.139,9.281-19.21,19.877-29.616,28.816c-3.43,2.935-9.357-0.896-6.594-5.088
				C566.811,810.218,591.777,792.742,612.759,775.857z"/>
			<path fill="#BDBEC7" d="M608.567,976.784l-0.019,4.993c-4.917,0-9.929,0.267-14.579,1.353
				c-6.804,1.582-10.063,9.453-9.815,17.019l-2.192,0.076c-0.133-4.974-1.334-9.72-3.297-12.426
				c-3.145-4.307-10.787-3.888-15.475-4.002c-2.039-0.057-4.155-0.114-6.27-0.114l0.019-4.993c5.794,0.038,12.521,0.248,17.991-1.41
				c5.736-1.734,7.985-9.758,7.757-17.324l2.192-0.076c0.133,4.288,1.372,8.481,3.754,11.378c0.095,0.819,0.495,1.601,1.334,2.287
				c4.574,3.678,11.682,3.24,17.228,3.24C607.652,976.784,608.109,976.784,608.567,976.784z"/>
			<path fill="#BDBEC7" d="M607.29,1017.035l-0.019,3.85c-4.974,0-10.063,0.267-14.77,1.353c-6.575,1.525-9.853,8.919-9.853,16.256
				l-2.192,0.076c-0.248-4.688-1.41-9.129-3.278-11.682c-3.125-4.288-10.768-3.869-15.456-4.002
				c-2.001-0.057-4.04-0.095-6.099-0.095l0.019-3.85c5.908,0.038,12.921,0.324,18.562-1.391c5.736-1.734,7.985-9.758,7.757-17.324
				l2.192-0.076c0.133,4.288,1.372,8.481,3.735,11.378c0.095,0.819,0.495,1.601,1.353,2.287c4.555,3.678,11.663,3.24,17.209,3.221
				C606.737,1017.035,607.004,1017.035,607.29,1017.035z"/>
			<path d="M600.372,813.63c3.64-4.04,9.605,1.944,5.984,5.984c-9.777,10.844-19.992,21.364-30.112,31.865
				c-2.668,2.782-7.375-0.839-5.336-4.097C578.874,834.727,590.423,824.683,600.372,813.63z"/>
			<path fill="#555661" d="M593.168,470.835c0.648,17.933,0.114,36.229,1.81,54.086c-2.668-0.4-5.279-0.953-7.833-1.677
				c-2.077-16.504-1.41-33.027-2.192-49.589c0.191-0.038,0.381-0.076,0.591-0.172C587.946,472.569,590.519,471.674,593.168,470.835z
				"/>
			<path d="M572.757,953.095c-0.019-0.038-0.057-0.076-0.133-0.114C572.7,953.057,572.757,953.095,572.757,953.095z
				 M582.686,959.956c0.229,7.566-2.02,15.589-7.757,17.324c-5.47,1.658-12.197,1.448-17.991,1.41c-0.477,0-0.934,0-1.391,0
				c-5.546,0-12.654,0.438-17.209-3.24c-0.858-0.686-1.258-1.467-1.353-2.287c-6.537-8.023-4.574-25.919,6.079-28.396
				c6.651-1.544,14.084-1.429,20.868-1.239c4.688,0.114,12.331-0.305,15.456,4.002C581.352,950.237,582.553,954.982,582.686,959.956
				z M574.434,964.968c0.133-3.469-0.305-8.729-1.982-12.064c-0.248-0.095-0.591-0.172-1.143-0.133
				c-2.115,0.114-4.517-0.476-6.67-0.553c-4.784-0.172-9.605-0.057-14.37,0.324c-4.421,0.343-6.937-0.019-8.1,4.631
				c-0.915,3.64-0.648,8.214,0.953,11.816c0.038,0.019,0.095,0.038,0.152,0.057c6.899,3.564,18.81,1.334,26.243,0.839
				C573.691,969.599,574.262,969.714,574.434,964.968z"/>
			<path d="M581.962,1000.226c0.229,7.566-2.02,15.589-7.757,17.324c-5.641,1.715-12.654,1.429-18.562,1.391
				c-0.286,0-0.553,0-0.839,0c-5.546,0.019-12.654,0.457-17.209-3.221c-0.858-0.686-1.258-1.467-1.334-2.287
				c-6.556-8.023-4.593-25.919,6.079-28.396c4.65-1.086,9.662-1.353,14.579-1.353c2.115,0,4.231,0.057,6.27,0.114
				c4.688,0.114,12.33-0.305,15.475,4.002C580.628,990.506,581.828,995.251,581.962,1000.226z M573.691,1005.238
				c0.133-3.469-0.305-8.729-1.982-12.064c-0.229-0.095-0.591-0.172-1.124-0.133c-2.135,0.114-4.536-0.476-6.689-0.553
				c-4.784-0.172-9.605-0.057-14.37,0.324c-4.402,0.343-6.937-0.019-8.1,4.631c-0.896,3.64-0.648,8.214,0.953,11.816
				c0.057,0.019,0.114,0.038,0.152,0.057c6.899,3.545,18.81,1.334,26.243,0.839C572.966,1009.869,573.519,1009.983,573.691,1005.238
				z"/>
			<path d="M570.508,1032.433c0.019,0.038,0.038,0.038,0.038,0.038S570.527,1032.433,570.508,1032.433z M580.456,1038.57
				c0.381,7.776-1.811,16.276-7.738,18.067c-5.908,1.792-13.302,1.391-19.382,1.41c-5.546,0.019-12.654,0.438-17.209-3.221
				c-0.858-0.686-1.258-1.486-1.353-2.287c-6.556-8.042-4.574-25.938,6.079-28.396c4.707-1.086,9.796-1.353,14.77-1.353
				c2.058,0,4.097,0.038,6.099,0.095c4.688,0.133,12.33-0.286,15.456,4.002C579.046,1029.441,580.208,1033.882,580.456,1038.57z
				 M572.223,1044.345c0.114-3.488-0.305-8.729-1.982-12.064c-0.248-0.095-0.591-0.172-1.143-0.152
				c-2.115,0.133-4.536-0.457-6.67-0.534c-4.784-0.172-9.605-0.076-14.37,0.305c-4.421,0.343-6.956-0.019-8.1,4.65
				c-0.915,3.621-0.648,8.214,0.934,11.797c0.057,0.038,0.114,0.038,0.172,0.076c6.899,3.545,18.81,1.315,26.243,0.82
				C571.48,1048.976,572.033,1049.09,572.223,1044.345z"/>
			<path d="M576.454,1068.034c4.955,6.804,5.012,26.853-4.479,29.749c-5.889,1.772-13.302,1.372-19.382,1.391
				c-5.546,0.019-12.654,0.438-17.209-3.221c-0.858-0.686-1.258-1.487-1.334-2.287c-6.556-8.042-4.593-25.919,6.079-28.396
				c6.651-1.544,14.084-1.429,20.849-1.258C565.667,1064.146,573.309,1063.727,576.454,1068.034z M571.48,1085.472
				c0.133-3.488-0.305-8.729-1.982-12.064c-0.229-0.095-0.591-0.172-1.124-0.152c-2.134,0.133-4.536-0.457-6.689-0.534
				c-4.784-0.172-9.605-0.076-14.37,0.305c-4.402,0.343-6.937-0.019-8.1,4.65c-0.896,3.621-0.648,8.214,0.953,11.797
				c0.057,0.038,0.095,0.038,0.152,0.076c6.899,3.545,18.81,1.315,26.243,0.82C570.737,1090.103,571.308,1090.217,571.48,1085.472z"
				/>
			<path fill="#555661" d="M572.452,952.905c1.677,3.335,2.115,8.595,1.982,12.064c-0.172,4.745-0.743,4.631-4.917,4.917
				c-7.433,0.495-19.344,2.725-26.243-0.839c-0.057-0.019-0.114-0.038-0.152-0.057c-1.601-3.602-1.868-8.176-0.953-11.816
				c1.163-4.65,3.678-4.288,8.1-4.631c4.764-0.381,9.586-0.495,14.37-0.324c2.154,0.076,4.555,0.667,6.67,0.553
				C571.861,952.733,572.204,952.81,572.452,952.905z"/>
			<path fill="#555661" d="M571.709,993.174c1.677,3.335,2.115,8.595,1.982,12.064c-0.172,4.745-0.724,4.631-4.917,4.917
				c-7.433,0.496-19.344,2.706-26.243-0.839c-0.038-0.019-0.095-0.038-0.152-0.057c-1.601-3.602-1.849-8.176-0.953-11.816
				c1.163-4.65,3.697-4.288,8.1-4.631c4.765-0.381,9.586-0.496,14.37-0.324c2.154,0.076,4.555,0.667,6.689,0.553
				C571.118,993.003,571.48,993.079,571.709,993.174z"/>
			<path fill="#555661" d="M570.241,1032.281c1.677,3.335,2.096,8.576,1.982,12.064c-0.191,4.745-0.743,4.631-4.917,4.898
				c-7.433,0.495-19.344,2.725-26.243-0.82c-0.057-0.038-0.114-0.038-0.172-0.076c-1.582-3.583-1.849-8.176-0.934-11.797
				c1.143-4.669,3.678-4.307,8.1-4.65c4.765-0.381,9.586-0.476,14.37-0.305c2.134,0.076,4.555,0.667,6.67,0.534
				C569.65,1032.109,569.993,1032.186,570.241,1032.281z"/>
			<path fill="#555661" d="M569.498,1073.408c1.677,3.335,2.115,8.576,1.982,12.064c-0.172,4.745-0.743,4.631-4.917,4.898
				c-7.433,0.495-19.344,2.725-26.243-0.82c-0.057-0.038-0.095-0.038-0.152-0.076c-1.601-3.583-1.849-8.176-0.953-11.797
				c1.163-4.669,3.697-4.307,8.1-4.65c4.764-0.381,9.586-0.476,14.37-0.305c2.154,0.076,4.555,0.667,6.689,0.534
				C568.907,1073.236,569.269,1073.313,569.498,1073.408z"/>
			<path fill="#555661" d="M556.538,538.3c0.553,0.305,1.029,0.667,1.487,1.029c-7.776,6.022-22.336,3.526-31.617,3.602
				c-6.937,0.057-13.912,0.057-20.83-0.21c-3.335-0.133-6.613-0.362-9.91-0.915c-3.411-0.553-10.577,0.095-4.631-2.897
				c0.8-0.419,1.22-1.086,1.372-1.83c4.65,1.01,9.7,0.457,14.446,0.572c7.051,0.172,14.37,0.915,21.326-0.419
				c3.106-0.591,2.63-4.974,0-5.832c-9.338-2.992-20.259-2.401-30.435-2.135c1.277-11.054,0.095-22.812,0.057-33.79
				c-0.019-12.102,0.705-24.756-1.182-36.744c17.362,0.248,34.99,1.086,52.333,0.248c-1.83,11.663-0.686,24.623-0.781,36.324
				c-0.114,12.007-1.467,24.794,0.267,36.686c0.114,0.8,0.496,1.429,1.01,1.906c0.286,0.858,0.877,1.62,1.887,2.058
				C553.089,536.718,554.861,537.366,556.538,538.3z"/>
			<path fill="#BDBEC7" d="M546.609,415.872c3.449,2.687,4.479,6.251,5.222,10.12c-9.262-0.934-18.772-0.362-28.034-0.419
				c-9.948-0.057-20.182-0.572-30.15,0.114c2.535-15.513,24.051-15.608,36.82-14.389
				C535.746,411.794,542.226,412.48,546.609,415.872z"/>
			<path fill="#555661" d="M547.219,437.198c0.019,0.515,0.057,1.01,0.095,1.506c-9.605-2.325-22.069-1.487-31.274-1.048
				c-5.012,0.248-11.358,0.362-16.885,1.734c0.21-2.134-0.114-4.498-0.515-6.689c8.385,0.286,16.866-0.076,25.156-0.114
				c7.757-0.057,15.704,0.324,23.517-0.076C547.029,434.015,547.181,435.654,547.219,437.198z"/>
			<path fill="#BDBEC7" d="M532.983,444.287c7.109,0.515,17.228-0.496,18.772,7.928c-19.287-1.163-38.935-0.076-58.241,0.114
				c0.991-10.234,14.236-8.709,22.526-8.748C521.682,443.563,527.361,443.887,532.983,444.287z"/>
			<path fill="#555661" d="M543.579,234.212c-0.019,57.688,1.143,115.453,0.629,173.103c-4.803-1.582-10.177-2.306-15.208-2.554
				c-7.89-0.381-16.809-0.286-24.489,1.791c0.114-55.63-0.095-111.279-0.152-166.928c-0.019-27.653-0.038-55.325-0.057-82.997
				c-0.019-28.339-2.154-88.276-3.297-88.695c0.343-0.133,23.784-21.859,38.935-2.344
				C541.445,67.532,543.598,178.811,543.579,234.212z M539.52,300.21c-0.076-23.517,0.743-47.34-1.239-70.819
				c-0.324-3.907-5.755-3.926-6.099,0c-1.963,23.479-1.143,47.302-1.22,70.819c-0.076,23.613-0.057,47.245,1.182,70.838
				c0.21,3.983,5.984,3.983,6.194,0C539.577,347.454,539.596,323.822,539.52,300.21z M516.688,118.797
				c0.038-14.103,0.877-28.701-1.086-42.69c-0.419-2.954-5.565-2.954-5.965,0c-1.963,14.008-1.143,28.568-1.105,42.69
				c0.038,15.246,0.095,30.455,0.991,45.682c0.229,3.983,5.965,3.983,6.194,0C516.612,149.252,516.669,134.044,516.688,118.797z"/>
			<path d="M538.281,229.39c1.982,23.479,1.163,47.302,1.239,70.819c0.076,23.613,0.057,47.245-1.182,70.838
				c-0.21,3.983-5.984,3.983-6.194,0c-1.239-23.594-1.258-47.225-1.182-70.838c0.076-23.517-0.743-47.34,1.22-70.819
				C532.526,225.464,537.957,225.484,538.281,229.39z"/>
			<path d="M532.888,1127.59c3.259,2.535-0.476,6.499-3.526,6.079c-12.045-1.715-22.469-14.979-23.994-26.376
				c-0.343-2.458,3.316-3.716,4.822-2.001c3.488,3.945,6.27,8.538,9.948,12.369C523.911,1121.605,528.619,1124.273,532.888,1127.59z
				"/>
			<path d="M515.602,76.108c1.963,13.989,1.124,28.587,1.086,42.69c-0.019,15.246-0.076,30.455-0.972,45.682
				c-0.229,3.983-5.965,3.983-6.194,0c-0.896-15.227-0.953-30.435-0.991-45.682c-0.038-14.122-0.858-28.682,1.105-42.69
				C510.037,73.154,515.183,73.154,515.602,76.108z"/>
			<path d="M512.877,690.287c0,66.112,0.114,132.224-0.152,198.336c-0.133,32.989-0.191,65.979-0.172,98.968
				c0.038,33.161,1.22,66.684-0.724,99.787c-0.324,5.641-8.424,5.622-8.748,0c-2.192-37.506-0.762-75.546-0.724-113.109
				c0.133-132.205,0.667-264.524,0.667-396.671c0-5.717,8.862-5.698,8.862,0C511.886,615.103,512.877,652.724,512.877,690.287z"/>
			<path fill="#555661" d="M482.575,629.111c0.648,68.589,3.545,137.236,0.438,205.787c-0.172,3.526-0.438,7.337-2.706,10.063
				c-3.297,3.983-8.919,3.754-13.531,2.973c-3.507-0.591-3.64-0.457-4.44-3.488c-0.419-1.563,1.182-8.652,0.038-9.548
				c1.315,1.029,3.049,1.01,4.593,0.343c1.239-0.534,2.363-1.467,3.049-2.63c1.525-2.592,1.467-5.775,1.372-8.786
				c-0.248-8.424-0.515-16.847-0.781-25.271c-0.076-1.982-0.152-4.078-1.22-5.775c-1.067-1.677-3.469-2.687-5.127-1.582
				c-0.133-3.888-0.267-7.776-0.419-11.663c3.488,0.496,7.928,0.515,9.51-2.649c0.591-1.162,0.61-2.516,0.61-3.831
				c0.114-29.101,0.229-58.222,0.324-87.342c0.019-1.772-0.019-3.678-1.086-5.089c-2.84-3.85-8.995-0.534-13.645-1.658
				c-0.438-2.649-0.362-5.393,0.267-8.004c2.134-0.705,4.44-0.248,6.689-0.267c2.249,0,4.822-0.724,5.755-2.763
				c0.457-1.029,0.419-2.211,0.381-3.354c-0.515-11.454-1.01-22.927-1.525-34.38c-0.057-1.277-0.114-2.592-0.648-3.754
				c-1.734-3.812-7.013-3.907-11.187-3.43c-0.191-5.088-0.4-10.177-0.61-15.265c5.584-0.057,11.149-0.133,16.733-0.21
				c1.105-0.019,2.268,0,3.183,0.629c0.743,0.534,1.163,1.41,1.506,2.268C482.441,616.304,482.518,622.784,482.575,629.111z"/>
			<path d="M478.687,883.019c0.324,13.226-0.896,26.376-0.991,39.583c-0.076,11.13,0.896,23.022-2.859,33.694
				c-1.277,3.64-7.757,3.335-7.204-0.972c3.068-23.594,3.926-48.502,3.659-72.306C471.254,878.255,478.573,878.274,478.687,883.019z
				"/>
			<path d="M475.6,1014.671c0.248,14.541,1.696,29.425,0.229,43.929c-0.496,4.86-7.09,4.86-7.566,0
				c-1.353-13.893-1.029-28.13-1.143-42.099c-0.133-13.226,1.563-26.624-0.095-39.793c-0.496-3.983,6.156-4.784,6.956-0.934
				C476.648,988.562,475.39,1001.693,475.6,1014.671z"/>
			<path fill="#BDBEC7" d="M464.47,688.724c0.095,27.291,0.191,54.582,0.305,81.873c-4.136,0.114-8.271,0.267-12.407,0.457
				c0.419-27.253,0.648-54.506,0.991-81.758C457.075,689.105,460.772,688.915,464.47,688.724z"/>
			<path fill="#BDBEC7" d="M462.945,631.112c0.286,10.272,0.591,20.525,0.915,30.779c-3.716,0.114-7.452,0.172-11.168,0.133
				c-0.267-5.565-0.515-11.111-0.8-16.657c-0.248-4.574-0.438-9.148-0.743-13.703c-0.038-0.515-0.076-1.029-0.114-1.525
				C455.017,630.464,458.981,630.788,462.945,631.112z"/>
			<path fill="#BDBEC7" d="M461.973,799.241c-0.133,8.9,0.152,17.857,0.4,26.757c-2.401-0.191-4.688-0.4-6.937-0.572
				c-0.038-8.767,0.286-17.495,0.515-26.243C457.952,799.203,459.972,799.222,461.973,799.241z"/>
		</g>
	</g>
</g>
</svg>
